<?xml version="1.0" encoding="utf-8"?>
<!-- Generator: Adobe Illustrator 26.2.1, SVG Export Plug-In . SVG Version: 6.00 Build 0)  -->
<svg version="1.1" id="Capa_1" xmlns="http://www.w3.org/2000/svg" xmlns:xlink="http://www.w3.org/1999/xlink" x="0px" y="0px"
	 viewBox="0 0 78 77" style="enable-background:new 0 0 78 77;" xml:space="preserve">
<style type="text/css">
	.st0{fill:#FFFFFF;}
	.st1{fill:#B7AA2C;}
	.st2{fill:#B7AA2E;}
	.st3{fill:#696A6F;}
</style>
<g>
	<g>
		<path class="st1" d="M37.1,16.44c-4.53,0-8.22-3.69-8.22-8.22S32.57,0,37.1,0s8.22,3.69,8.22,8.22S41.64,16.44,37.1,16.44z
			 M37.1,2.14c-3.36,0-6.08,2.73-6.08,6.08s2.73,6.08,6.08,6.08s6.08-2.73,6.08-6.08S40.46,2.14,37.1,2.14z"/>
	</g>
	<g>
		<path class="st1" d="M41.1,77c-0.02,0-0.04,0-0.07,0c-2.63-0.04-3.63-2.21-3.66-3.66c0.11-8.03-0.14-16.98-0.73-18.14
			c-1.18-1.25-3.38-2.93-4.72-3.92L23.85,73.6c-0.41,1.18-1.85,3.28-4.26,2.68c-1.12-0.27-1.98-0.87-2.49-1.74
			c-0.87-1.46-0.46-3.13-0.41-3.32l8.72-24.22c-1-1.03-3-3.38-3-5.83c0-4.87,4.2-21.09,6.69-24.53l0,0c1.15-1.59,3-1.38,6.24-0.4
			c3.35,1.02,4.81,3.38,5.17,4.05c2.47,2.67,5.66,5.58,6.57,5.73c0.99,0.17,7.34-1.3,12.83-2.82l0.28-0.04c0.01,0,0.01,0,0.02,0
			c0.98,0,2.93,0.53,3.4,2.57c0.6,2.55-0.91,3.98-1.79,4.38l-12.54,4c-0.16,0.04-2.28,0.56-4.12,0c-1.32-0.4-4.45-3.03-6.4-4.77
			L35.7,40.54c1.75,1.81,7.54,7.92,8.72,10.85c1.31,3.29,0.49,20.22,0.39,22.13C44.65,74.79,43.68,77,41.1,77z M30.86,47.9l1.14,0.8
			c0.17,0.12,4.26,3,6.26,5.13c1.23,1.3,1.35,11.32,1.24,19.5c0.01,0.32,0.17,1.51,1.56,1.53c1.3-0.02,1.58-1.27,1.61-1.53
			c0.36-6.98,0.61-19-0.25-21.14c-0.97-2.43-6.6-8.47-8.69-10.59l-0.43-0.44l4.32-15.71l1.29,1.18c2.65,2.43,6.03,5.21,6.87,5.46
			c1.28,0.39,2.9-0.01,2.92-0.01l12.35-3.94c0.02-0.03,0.8-0.5,0.47-1.9c-0.17-0.73-0.89-0.88-1.21-0.91
			c-2.91,0.81-11.63,3.15-13.59,2.83c-2.1-0.35-6.57-5.07-7.89-6.5l-0.19-0.29c-0.04-0.08-1.05-2.18-3.93-3.05
			c-3.42-1.04-3.73-0.61-3.89-0.4v0c-2.06,2.84-6.29,18.5-6.29,23.27c0,1.81,2.03,4.04,2.81,4.75l0.53,0.48l-9.17,25.45
			c-0.04,0.18-0.14,1.02,0.22,1.6c0.22,0.36,0.6,0.61,1.15,0.74c1.12,0.28,1.69-1.16,1.75-1.32L30.86,47.9z"/>
	</g>
	<g>
		<path class="st1" d="M68.83,73.81c-0.69,0-1.3-0.5-1.4-1.21l-8.24-52.97c-0.12-0.78,0.41-1.51,1.19-1.63
			c0.77-0.1,1.51,0.41,1.63,1.19l8.24,52.97c0.12,0.78-0.41,1.51-1.19,1.63C68.98,73.81,68.91,73.81,68.83,73.81z"/>
	</g>
	<g>
		<path class="st1" d="M14.53,41.25c-0.88,0-1.79-0.2-2.7-0.71c-4.55-2.53-4.25-8.39-3.91-10.79c0.21-1.52,1.52-9.25,6.39-12.36
			c7.24-4.61,12.47-1.88,12.69-1.76l0.77,0.42l-6.81,21.93C20.8,38.14,17.95,41.25,14.53,41.25z M22.64,16.85
			c-1.82,0-4.3,0.5-7.19,2.34c-3.16,2.02-4.9,7.11-5.43,10.86c-0.28,1.97-0.55,6.74,2.84,8.63c2.64,1.46,5.64-1.27,6.34-1.97
			l5.97-19.5C24.6,17.03,23.74,16.85,22.64,16.85z"/>
	</g>
</g>
</svg>
