<?xml version="1.0" encoding="UTF-8"?><svg id="Capa_1" xmlns="http://www.w3.org/2000/svg" viewBox="0 0 78 77"><defs><style>.cls-1,.cls-2,.cls-3{fill:#fff;}.cls-4{fill:none;}.cls-4,.cls-2,.cls-3{stroke:#fff;stroke-miterlimit:10;stroke-width:2.1px;}.cls-3{stroke-linecap:round;}</style></defs><path class="cls-2" d="M34.86,19.14s-10.96,6.21-12.14,6.92c-1.41,.85-3.32,2.58-3.39,5.65-.09,3.81,3.05,6.13,3.05,6.13l12.66,9.18-7.31,11.92s-2.35,4.21,.39,5.72,4.59-1.66,4.59-1.66l10.55-15.19s1.04-1.5,.86-3.27-1.64-3.21-2.61-4.1c-.81-.75-7.1-4.91-7.59-6.17,0,0,11.59-7.75,13.03-7.45,1.09,.23,.17,2.69,.88,3.81s7.02,7.15,7.02,7.15c0,0,4.27,4.1,6.4,2s-.84-4.91-.84-4.91c0,0-6.22-5.77-6.52-6.76-.41-1.39,2.67-9.08,2.67-9.08,0,0,1.21-4.08-.93-6.09-1.49-1.4-4.29-1.43-5.39-.94l-15.41,7.15Z"/><path class="cls-1" d="M66.79,19.58c-4.51,.46-8.55-2.83-9.02-7.34s2.83-8.56,7.34-9.02,8.55,2.83,9.02,7.34-2.83,8.56-7.34,9.02Zm-1.46-14.23c-3.34,.34-5.77,3.34-5.43,6.67s3.34,5.77,6.67,5.43,5.77-3.34,5.43-6.67-3.34-5.77-6.67-5.43Z"/><line class="cls-3" x1="53.36" y1="36.26" x2="3.84" y2="32.69"/><line class="cls-3" x1="7.08" y1="29.99" x2="6.79" y2="35.52"/><path class="cls-3" d="M3.36,56.5l49.04,17.71s1.7,.69,3.78,.51c1.48-.13,2.43-.99,2.43-.99"/><g><path class="cls-4" d="M35.63,19.14s-10.96,6.21-12.14,6.92c-1.41,.85-3.32,2.58-3.39,5.65-.09,3.81,3.05,6.13,3.05,6.13l12.66,9.18-7.31,11.92s-2.35,4.21,.39,5.72,4.59-1.66,4.59-1.66l10.55-15.19s1.04-1.5,.86-3.27-1.64-3.21-2.61-4.1c-.81-.75-7.1-4.91-7.59-6.17,0,0,11.59-7.75,13.03-7.45,1.09,.23,.17,2.69,.88,3.81s7.02,7.15,7.02,7.15c0,0,4.27,4.1,6.4,2s-.84-4.91-.84-4.91c0,0-6.22-5.77-6.52-6.76-.41-1.39,2.67-9.08,2.67-9.08,0,0,1.21-4.08-.93-6.09-1.49-1.4-4.29-1.43-5.39-.94l-15.41,7.15Z"/><path class="cls-1" d="M67.55,19.58c-4.51,.46-8.55-2.83-9.02-7.34-.46-4.51,2.83-8.56,7.34-9.02s8.55,2.83,9.02,7.34c.46,4.51-2.83,8.56-7.34,9.02Zm-1.46-14.23c-3.34,.34-5.77,3.34-5.43,6.67s3.34,5.77,6.67,5.43,5.77-3.34,5.43-6.67-3.34-5.77-6.67-5.43Z"/><line class="cls-3" x1="54.12" y1="36.26" x2="4.61" y2="32.69"/><line class="cls-3" x1="7.85" y1="29.99" x2="7.55" y2="35.52"/><path class="cls-3" d="M4.12,56.5l49.04,17.71s1.7,.69,3.78,.51c1.48-.13,2.43-.99,2.43-.99"/></g></svg>