<?xml version="1.0" encoding="UTF-8"?><svg id="Capa_1" xmlns="http://www.w3.org/2000/svg" viewBox="0 0 78 77"><defs><style>.cls-1{fill:none;}.cls-1,.cls-2,.cls-3{stroke:#fff;stroke-linecap:round;stroke-linejoin:round;}.cls-2{stroke-width:1.84px;}.cls-2,.cls-3{fill:#fff;}.cls-3{stroke-width:2px;}</style></defs><path class="cls-2" d="M75.57,26.15c0,17-16.37,30.79-36.57,30.79S2.43,43.15,2.43,26.15H75.57Z"/><line class="cls-3" x1="22.3" y1="58.28" x2="14.18" y2="74.31"/><line class="cls-3" x1="57.47" y1="58.28" x2="65.58" y2="74.31"/><line class="cls-3" x1="2.43" y1="22.6" x2="75.57" y2="22.6"/><path class="cls-1" d="M32.33,19.46s-3.32-1.8-3.32-5.49c0-4.2,3.99-4.79,2.33-9.59"/><path class="cls-1" d="M40.45,17.27s-3.32-1.8-3.32-5.49c0-4.2,3.99-4.79,2.33-9.59"/><path class="cls-1" d="M49.1,18.52s-3.32-1.8-3.32-5.49c0-4.2,3.99-4.79,2.33-9.59"/></svg>