<?xml version="1.0" encoding="UTF-8"?><svg id="Capa_1" xmlns="http://www.w3.org/2000/svg" viewBox="0 0 78 77"><defs><style>.cls-1{fill:#fff;}.cls-2{fill:none;stroke:#fff;stroke-linecap:round;stroke-linejoin:round;stroke-width:2px;}</style></defs><g><polygon class="cls-2" points="27.45 55.5 34.05 55.5 25.97 41.49 30.06 41.49 18.03 20.67 6.01 41.49 10.1 41.49 2.02 55.5 8.63 55.5 2.02 66.91 34.05 66.91 27.45 55.5"/><rect class="cls-1" x="16.14" y="66.91" width="4.75" height="9.23"/></g><g><polygon class="cls-2" points="71.12 48.78 76.55 48.78 69.89 37.25 73.26 37.25 63.36 20.1 53.46 37.25 56.82 37.25 50.16 48.78 55.61 48.78 50.16 58.19 76.55 58.19 71.12 48.78"/><rect class="cls-1" x="61.79" y="58.19" width="3.91" height="7.6"/></g><g><polygon class="cls-2" points="45.37 26.01 49.84 26.01 44.37 16.54 47.13 16.54 39 2.45 30.87 16.54 33.63 16.54 28.16 26.01 32.63 26.01 28.16 33.74 49.84 33.74 45.37 26.01"/><rect class="cls-1" x="37.72" y="33.74" width="3.22" height="6.24"/></g></svg>