<?xml version="1.0" encoding="UTF-8"?><svg id="Capa_1" xmlns="http://www.w3.org/2000/svg" viewBox="0 0 78 77"><defs><style>.cls-1{fill:#fff;}.cls-2{fill:none;stroke:#fff;stroke-linecap:round;stroke-miterlimit:10;stroke-width:2px;}</style></defs><path class="cls-2" d="M75.89,70.29v-19.76c0-3.12-2.53-5.65-5.65-5.65H7.75c-3.12,0-5.65,2.53-5.65,5.65v19.76"/><rect class="cls-1" x="4.18" y="36.25" width="17.32" height="6.8" rx="3.33" ry="3.33"/><path class="cls-1" d="M75.89,58.81v-10.83c0-1.71-2.53-3.1-5.65-3.1H7.75c-3.12,0-5.65,1.39-5.65,3.1v10.83"/><line class="cls-2" x1="2.11" y1="70.29" x2="2.11" y2="25.92"/><g><path class="cls-1" d="M58.57,12.19l-1.93-7.14-1.95,7.14c-.15,.54-.27,.93-.36,1.17-.09,.23-.25,.45-.47,.63s-.52,.28-.89,.28c-.3,0-.54-.06-.74-.17-.19-.11-.35-.27-.47-.47-.12-.2-.22-.44-.29-.72-.08-.28-.14-.54-.2-.78l-1.98-8.02c-.12-.47-.18-.82-.18-1.06,0-.31,.11-.57,.33-.78,.22-.21,.48-.32,.8-.32,.44,0,.73,.14,.89,.42,.15,.28,.28,.69,.4,1.23l1.56,6.96,1.75-6.51c.13-.5,.25-.88,.35-1.14,.1-.26,.27-.48,.5-.67,.23-.19,.55-.28,.95-.28s.72,.1,.95,.3,.38,.41,.47,.65c.09,.23,.2,.62,.35,1.15l1.76,6.51,1.56-6.96c.08-.36,.15-.65,.22-.85s.18-.39,.35-.55c.16-.16,.4-.24,.72-.24s.58,.11,.8,.31c.22,.21,.33,.47,.33,.78,0,.22-.06,.58-.18,1.06l-1.98,8.02c-.14,.54-.25,.94-.34,1.19-.09,.25-.24,.47-.46,.66-.21,.19-.52,.28-.91,.28-.37,0-.66-.09-.89-.28-.22-.18-.38-.39-.46-.62-.09-.23-.21-.62-.37-1.18Z"/><path class="cls-1" d="M75.89,10.31c0,.38-.09,.79-.28,1.23s-.48,.87-.88,1.3c-.4,.42-.91,.77-1.54,1.04-.62,.27-1.35,.4-2.18,.4-.63,0-1.2-.06-1.71-.18s-.98-.3-1.4-.56c-.42-.25-.81-.58-1.16-.99-.31-.37-.58-.79-.8-1.26s-.39-.96-.5-1.48-.17-1.08-.17-1.67c0-.96,.14-1.82,.42-2.58,.28-.76,.68-1.41,1.2-1.95s1.13-.95,1.83-1.23c.7-.28,1.44-.42,2.23-.42,.96,0,1.82,.19,2.58,.58s1.33,.86,1.73,1.43c.4,.57,.6,1.1,.6,1.6,0,.28-.1,.52-.29,.73-.2,.21-.43,.32-.71,.32-.31,0-.54-.07-.69-.22-.15-.15-.33-.4-.52-.76-.31-.59-.68-1.03-1.11-1.32-.42-.29-.95-.44-1.57-.44-.99,0-1.78,.38-2.37,1.13-.59,.75-.88,1.82-.88,3.21,0,.93,.13,1.7,.39,2.31s.63,1.07,1.1,1.38c.48,.3,1.03,.45,1.67,.45,.69,0,1.28-.17,1.76-.52s.84-.85,1.08-1.52c.1-.31,.23-.57,.38-.77s.4-.3,.73-.3c.29,0,.53,.1,.74,.3,.21,.2,.31,.45,.31,.75Z"/></g></svg>