<?xml version="1.0" encoding="UTF-8"?><svg id="Capa_1" xmlns="http://www.w3.org/2000/svg" viewBox="0 0 78 77"><defs><style>.cls-1{fill:#fff;}.cls-2{fill:none;stroke:#fff;stroke-linecap:round;stroke-miterlimit:10;stroke-width:2.3px;}</style></defs><path class="cls-2" d="M1.67,34.43L23.52,6.87s3.02-4.03,5.41-2.75,4.76,9.33,5.53,9.82,2.47-.49,4.17-3.17c1.71-2.68,3.17-5.36,5.85-4.63s3.17,7.07,7.07,7.8,8.53-.62,10.72,1.52l2.19,2.14s.24-4.23,2.68-.65,9.1,12.91,9.1,12.91"/><path class="cls-1" d="M5.61,71.87c-3.97-1.17-2.99-3.52,3.51-5,11.33-2.58,24.68-.83,34.28-2.04s21.72,1.24,24.75,1.44c8.43,.56,8.07,5.05,2.26,5.87-7.41,1.04-9.85,.56-16.66,.78-23.1,.74-38.69,1.74-48.14-1.04Z"/></svg>