<?xml version="1.0" encoding="UTF-8"?><svg id="Capa_1" xmlns="http://www.w3.org/2000/svg" viewBox="0 0 78 77"><defs><style>.cls-1{fill:#fff;}.cls-2{fill:none;stroke:#fff;stroke-linecap:round;stroke-miterlimit:10;stroke-width:2px;}</style></defs><path class="cls-1" d="M12.54,55.94c-4.53,0-8.22-3.69-8.22-8.22s3.69-8.22,8.22-8.22,8.22,3.69,8.22,8.22-3.69,8.22-8.22,8.22Zm0-14.31c-3.36,0-6.08,2.73-6.08,6.08s2.73,6.08,6.08,6.08,6.08-2.73,6.08-6.08-2.73-6.08-6.08-6.08Z"/><path class="cls-1" d="M39,55.94c-4.53,0-8.22-3.69-8.22-8.22s3.69-8.22,8.22-8.22,8.22,3.69,8.22,8.22-3.69,8.22-8.22,8.22Zm0-14.31c-3.36,0-6.08,2.73-6.08,6.08s2.73,6.08,6.08,6.08,6.08-2.73,6.08-6.08-2.73-6.08-6.08-6.08Z"/><path class="cls-1" d="M65.46,55.94c-4.53,0-8.22-3.69-8.22-8.22s3.69-8.22,8.22-8.22,8.22,3.69,8.22,8.22-3.69,8.22-8.22,8.22Zm0-14.31c-3.36,0-6.08,2.73-6.08,6.08s2.73,6.08,6.08,6.08,6.08-2.73,6.08-6.08-2.73-6.08-6.08-6.08Z"/><path class="cls-2" d="M.91,71.95c0-8.09,5.21-14.66,11.63-14.66s11.63,6.56,11.63,14.66"/><path class="cls-2" d="M53.83,71.95c0-8.09,5.21-14.66,11.63-14.66s11.63,6.56,11.63,14.66"/><path class="cls-2" d="M27.37,71.95c0-8.09,5.21-14.66,11.63-14.66s11.63,6.56,11.63,14.66"/><path class="cls-1" d="M25.77,20.49c-4.53,0-8.22-3.69-8.22-8.22s3.69-8.22,8.22-8.22,8.22,3.69,8.22,8.22-3.69,8.22-8.22,8.22Zm0-14.31c-3.36,0-6.08,2.73-6.08,6.08s2.73,6.08,6.08,6.08,6.08-2.73,6.08-6.08-2.73-6.08-6.08-6.08Z"/><path class="cls-1" d="M52.23,20.49c-4.53,0-8.22-3.69-8.22-8.22s3.69-8.22,8.22-8.22,8.22,3.69,8.22,8.22-3.69,8.22-8.22,8.22Zm0-14.31c-3.36,0-6.08,2.73-6.08,6.08s2.73,6.08,6.08,6.08,6.08-2.73,6.08-6.08-2.73-6.08-6.08-6.08Z"/><path class="cls-2" d="M14.14,36.5c0-8.09,5.21-14.66,11.63-14.66s11.63,6.56,11.63,14.66"/><path class="cls-2" d="M40.6,36.5c0-8.09,5.21-14.66,11.63-14.66s11.63,6.56,11.63,14.66"/></svg>