<?xml version="1.0" encoding="utf-8"?>
<!-- Generator: Adobe Illustrator 26.2.1, SVG Export Plug-In . SVG Version: 6.00 Build 0)  -->
<svg version="1.1" id="Capa_1" xmlns="http://www.w3.org/2000/svg" xmlns:xlink="http://www.w3.org/1999/xlink" x="0px" y="0px"
	 viewBox="0 0 78 77" style="enable-background:new 0 0 78 77;" xml:space="preserve">
<style type="text/css">
	.st0{fill:#FFFFFF;}
	.st1{fill:#B7AA2C;}
	.st2{fill:#B7AA2E;}
	.st3{fill:#696A6F;}
</style>
<g>
	<g>
		<g>
			<g>
				<path class="st0" d="M35.65,59.17V17.83C35.65,8,27.65,0,17.82,0C7.99,0,0,8,0,17.83c0,9.87,7.82,17.8,17.77,18.05
					c0.21,0.01,5.1,0.16,7.98-2.8c3.06-3.15,2.7-7.14,1.07-9.52c-1.72-2.53-4.63-3.41-7.4-2.24c-1.76,0.74-2.89,2.24-3.1,4.1
					c-0.2,1.82,0.51,3.6,1.82,4.54c1.08,0.77,2.43,0.87,3.72,0.27c0.69-0.32,0.98-1.14,0.66-1.82c-0.32-0.69-1.14-0.98-1.82-0.66
					c-0.51,0.24-0.78,0.12-0.96-0.01c-0.43-0.3-0.8-1.09-0.7-2.01c0.07-0.61,0.37-1.43,1.44-1.88c1.84-0.77,3.31,0.15,4.07,1.26
					c1.05,1.54,1.22,4.02-0.77,6.07c-2.02,2.08-5.87,1.98-5.93,1.97C9.38,32.92,2.74,26.2,2.74,17.83c0-8.32,6.77-15.09,15.09-15.09
					c8.32,0,15.09,6.77,15.09,15.09v41.35c0,8.32-6.77,15.09-15.09,15.09c-8.32,0-15.09-6.77-15.09-15.09
					c0-8.37,6.64-15.1,15.14-15.32c0.04,0,3.89-0.1,5.91,1.98c1.99,2.05,1.83,4.53,0.77,6.07c-0.76,1.12-2.23,2.04-4.07,1.26
					c-1.07-0.45-1.37-1.27-1.44-1.88c-0.1-0.92,0.27-1.71,0.7-2.01c0.18-0.13,0.45-0.25,0.96-0.01c0.68,0.32,1.5,0.03,1.82-0.66
					c0.32-0.68,0.03-1.5-0.66-1.82c-1.28-0.6-2.64-0.51-3.72,0.27c-1.31,0.94-2.03,2.73-1.82,4.55c0.21,1.87,1.34,3.36,3.1,4.1
					c2.77,1.16,5.67,0.28,7.4-2.24c1.62-2.38,1.98-6.38-1.07-9.52c-2.88-2.96-7.76-2.81-7.96-2.81C7.81,41.37,0,49.3,0,59.17
					C0,69,7.99,77,17.82,77C27.65,77,35.65,69,35.65,59.17z"/>
			</g>
			<g>
				<path class="st0" d="M78,59.17c0-9.87-7.81-17.8-17.77-18.05c-0.21-0.01-5.1-0.16-7.98,2.8c-3.05,3.15-2.7,7.14-1.07,9.52
					c1.73,2.53,4.63,3.41,7.4,2.24c1.76-0.74,2.89-2.23,3.1-4.1c0.2-1.82-0.51-3.6-1.82-4.55c-1.08-0.77-2.43-0.87-3.72-0.27
					c-0.69,0.32-0.98,1.14-0.66,1.82c0.32,0.69,1.14,0.98,1.82,0.66c0.51-0.24,0.78-0.12,0.96,0.01c0.43,0.31,0.8,1.09,0.7,2.01
					c-0.07,0.61-0.38,1.43-1.44,1.88c-1.84,0.77-3.31-0.15-4.07-1.26c-1.05-1.54-1.22-4.02,0.77-6.07c2.02-2.08,5.88-1.98,5.93-1.98
					c8.48,0.22,15.12,6.94,15.12,15.32c0,8.32-6.77,15.09-15.09,15.09c-8.32,0-15.08-6.77-15.08-15.09V17.83
					c0-8.32,6.77-15.09,15.08-15.09c8.32,0,15.09,6.77,15.09,15.09c0,8.37-6.64,15.1-15.14,15.32c-0.03,0-3.89,0.11-5.92-1.97
					c-2-2.05-1.83-4.53-0.77-6.07c0.76-1.12,2.23-2.04,4.07-1.26c1.07,0.45,1.37,1.27,1.44,1.88c0.1,0.92-0.27,1.71-0.7,2.01
					c-0.18,0.13-0.45,0.25-0.96,0.01c-0.68-0.32-1.5-0.03-1.82,0.66c-0.32,0.68-0.03,1.5,0.66,1.82c1.28,0.6,2.64,0.5,3.72-0.27
					c1.31-0.94,2.03-2.73,1.82-4.55c-0.21-1.87-1.34-3.36-3.1-4.1c-2.77-1.16-5.67-0.28-7.4,2.24c-1.63,2.38-1.98,6.38,1.07,9.52
					c2.88,2.96,7.77,2.81,7.97,2.8C70.19,35.63,78,27.69,78,17.83C78,8,70.01,0,60.18,0c-9.83,0-17.82,8-17.82,17.83v41.35
					c0,9.83,8,17.83,17.82,17.83C70.01,77,78,69,78,59.17z"/>
			</g>
		</g>
	</g>
</g>
</svg>
