<?xml version="1.0" encoding="utf-8"?>
<!-- Generator: Adobe Illustrator 26.2.1, SVG Export Plug-In . SVG Version: 6.00 Build 0)  -->
<svg version="1.1" id="Capa_1" xmlns="http://www.w3.org/2000/svg" xmlns:xlink="http://www.w3.org/1999/xlink" x="0px" y="0px"
	 viewBox="0 0 78 77" style="enable-background:new 0 0 78 77;" xml:space="preserve">
<style type="text/css">
	.st0{fill:#FFFFFF;}
	.st1{fill:#B7AA2C;}
	.st2{fill:#B7AA2E;}
	.st3{fill:#696A6F;}
</style>
<g>
	<g>
		<path class="st1" d="M39.05,76.06c-0.02,0-0.04,0-0.05,0c-3.02-0.01-18.46-0.25-25.79-4.36C5.84,67.59,0.6,41.7,0.03,38.76
			c-0.13-0.67,0.23-1.34,0.86-1.6C1.39,36.95,13.6,32,39,32c22.24,0,37.38,4.91,38.01,5.12c0.69,0.23,1.1,0.93,0.96,1.64
			c-0.57,2.94-5.82,28.83-13.18,32.95C57.17,75.98,40.32,76.06,39.05,76.06z M3.09,39.41C4.82,47.79,9.6,66.4,14.61,69.2
			c6.85,3.84,22.62,3.98,24.4,3.99c0,0,0.01,0,0.01,0c0.45,0,17.33-0.04,24.38-3.99c4.99-2.79,9.76-21.32,11.51-29.72
			c-4.02-1.15-17.67-4.61-35.9-4.61C18.45,34.87,6.59,38.24,3.09,39.41z"/>
	</g>
	<g>
		<path class="st1" d="M48.85,34.55c-0.59,0-1.08-0.48-1.08-1.08c0-16.47-5.51-30.38-12.04-30.38S23.69,17,23.69,33.47
			c0,0.59-0.48,1.08-1.08,1.08c-0.59,0-1.08-0.48-1.08-1.08c0-18.24,6.23-32.53,14.19-32.53s14.19,14.29,14.19,32.53
			C49.92,34.06,49.44,34.55,48.85,34.55z"/>
	</g>
	<g>
		<path class="st1" d="M55.38,34.55c-0.59,0-1.08-0.48-1.08-1.08c0-16.47-5.51-30.38-12.04-30.38S30.23,17,30.23,33.47
			c0,0.59-0.48,1.08-1.08,1.08c-0.59,0-1.08-0.48-1.08-1.08c0-18.24,6.23-32.53,14.19-32.53s14.19,14.29,14.19,32.53
			C56.46,34.06,55.97,34.55,55.38,34.55z"/>
	</g>
</g>
</svg>
