<?xml version="1.0" encoding="utf-8"?>
<!-- Generator: Adobe Illustrator 26.2.1, SVG Export Plug-In . SVG Version: 6.00 Build 0)  -->
<svg version="1.1" id="Capa_1" xmlns="http://www.w3.org/2000/svg" xmlns:xlink="http://www.w3.org/1999/xlink" x="0px" y="0px"
	 viewBox="0 0 356 169" style="enable-background:new 0 0 356 169;" xml:space="preserve">
<style type="text/css">
	.st0{fill:#FFFFFF;}
	.st1{fill:#B7AA2C;}
	.st2{fill:#B7AA2E;}
	.st3{fill:#696A6F;}
</style>
<g>
	<g>
		<g>
			<g>
				<g>
					<path class="st2" d="M156.91,74.95c-9.55,0-17.32-7.77-17.32-17.31c0-9.59,7.59-17.29,17.28-17.54
						c0.19-0.01,4.94-0.15,7.73,2.73c2.97,3.05,2.62,6.94,1.04,9.25c-1.67,2.45-4.5,3.31-7.18,2.18c-1.71-0.72-2.81-2.17-3.01-3.98
						c-0.2-1.77,0.5-3.5,1.77-4.42c1.05-0.75,2.36-0.85,3.61-0.26c0.67,0.31,0.95,1.1,0.64,1.77c-0.31,0.67-1.11,0.95-1.77,0.64
						c-0.49-0.23-0.76-0.11-0.93,0.01c-0.41,0.3-0.78,1.06-0.68,1.96c0.07,0.59,0.36,1.39,1.4,1.83c1.79,0.75,3.21-0.14,3.96-1.23
						c1.02-1.5,1.18-3.9-0.75-5.89c-1.96-2.02-5.71-1.92-5.74-1.92c-8.25,0.21-14.7,6.74-14.7,14.88c0,8.08,6.57,14.65,14.65,14.65
						c8.08,0,14.65-6.57,14.65-14.65V17.47c0-8.08-6.57-14.65-14.65-14.65c-8.08,0-14.65,6.57-14.65,14.65
						c0,8.13,6.45,14.67,14.69,14.88c0.05,0.01,3.79,0.1,5.76-1.92c1.94-2,1.77-4.4,0.75-5.9c-0.74-1.08-2.17-1.98-3.96-1.23
						c-1.04,0.44-1.33,1.23-1.4,1.83c-0.1,0.89,0.26,1.66,0.68,1.95c0.18,0.13,0.44,0.24,0.93,0.01c0.66-0.31,1.46-0.03,1.77,0.64
						c0.31,0.67,0.03,1.46-0.64,1.77c-1.25,0.59-2.56,0.49-3.61-0.26c-1.27-0.91-1.97-2.65-1.77-4.41c0.2-1.81,1.3-3.27,3.01-3.98
						c2.69-1.13,5.51-0.28,7.18,2.18c1.58,2.31,1.93,6.19-1.04,9.25c-2.79,2.88-7.55,2.73-7.75,2.72
						c-9.67-0.25-17.26-7.95-17.26-17.53c0-9.55,7.77-17.31,17.32-17.31c9.55,0,17.31,7.77,17.31,17.31v40.16
						C174.22,67.18,166.46,74.95,156.91,74.95z"/>
				</g>
				<g>
					<path class="st2" d="M198.05,74.95c-9.55,0-17.31-7.77-17.31-17.31V17.47c0-9.55,7.77-17.31,17.31-17.31
						c9.55,0,17.32,7.77,17.32,17.31c0,9.59-7.59,17.29-17.28,17.54c-0.19,0.01-4.94,0.15-7.74-2.72c-2.97-3.06-2.62-6.94-1.04-9.25
						c1.67-2.45,4.49-3.31,7.18-2.18c1.71,0.72,2.81,2.17,3.01,3.98c0.2,1.77-0.5,3.5-1.77,4.41c-1.05,0.75-2.36,0.85-3.61,0.26
						c-0.67-0.31-0.95-1.1-0.64-1.77c0.31-0.67,1.11-0.95,1.77-0.64c0.49,0.23,0.76,0.11,0.93-0.01c0.41-0.3,0.78-1.06,0.68-1.95
						c-0.07-0.59-0.36-1.39-1.4-1.83c-1.79-0.75-3.22,0.14-3.96,1.23c-1.02,1.5-1.19,3.9,0.75,5.9c1.96,2.02,5.71,1.92,5.75,1.92
						c8.25-0.21,14.7-6.74,14.7-14.88c0-8.08-6.57-14.65-14.65-14.65c-8.08,0-14.65,6.57-14.65,14.65v40.16
						c0,8.08,6.57,14.65,14.65,14.65c8.08,0,14.65-6.57,14.65-14.65c0-8.13-6.45-14.67-14.69-14.88c-0.05,0-3.8-0.1-5.76,1.92
						c-1.94,1.99-1.77,4.4-0.75,5.89c0.74,1.09,2.17,1.98,3.96,1.23c1.03-0.43,1.33-1.23,1.4-1.83c0.1-0.89-0.26-1.66-0.68-1.96
						c-0.18-0.13-0.44-0.24-0.93-0.01c-0.66,0.31-1.46,0.03-1.77-0.64c-0.31-0.67-0.03-1.46,0.64-1.77
						c1.25-0.58,2.56-0.49,3.61,0.26c1.27,0.91,1.97,2.65,1.77,4.42c-0.2,1.81-1.3,3.26-3.01,3.98c-2.69,1.13-5.51,0.27-7.19-2.18
						c-1.58-2.31-1.93-6.19,1.04-9.25c2.8-2.88,7.55-2.73,7.75-2.72c9.67,0.25,17.26,7.95,17.26,17.54
						C215.36,67.18,207.59,74.95,198.05,74.95z"/>
				</g>
			</g>
			<g>
				<path class="st3" d="M5.79,126.04C1.15,121.88,0,116.43,0,111.88c0-3.2,1.1-8.8,5.36-13.06c2.87-2.87,7.22-5.12,14.59-5.12
					c1.91,0,4.59,0.14,6.94,0.57c1.82,0.34,3.3,0.48,5.07,0.72c0.33,0.05,0.43,0.24,0.43,0.53c0,0.38-0.14,0.96-0.24,2.68
					c-0.1,1.58-0.1,4.21-0.14,4.93c-0.05,0.72-0.14,1-0.43,1c-0.34,0-0.38-0.33-0.38-1c0-1.86-0.76-3.83-2.01-4.88
					c-1.67-1.43-5.36-2.73-9.57-2.73c-6.36,0-9.33,1.87-11,3.49c-3.49,3.35-4.3,7.61-4.3,12.48c0,9.14,7.03,17.51,17.27,17.51
					c3.59,0,6.41-0.43,8.32-2.39c1-1.05,1.63-3.16,1.77-4.02c0.09-0.53,0.19-0.72,0.48-0.72c0.24,0,0.33,0.33,0.33,0.72
					c0,0.33-0.57,4.5-1.05,6.12c-0.29,0.91-0.38,1-1.24,1.39c-1.91,0.76-5.55,1.1-8.61,1.1C14.4,131.21,9.57,129.44,5.79,126.04z"/>
				<path class="st3" d="M47.64,116.43c-0.24,0-0.38,0.14-0.48,0.38l-2.87,8.47c-0.43,1.2-0.67,2.34-0.67,3.2
					c0,0.96,0.91,1.39,1.72,1.39c0.14,0,0.29,0,0.43,0c0.48,0,0.62,0.1,0.62,0.29c0,0.29-0.43,0.38-0.86,0.38
					c-1.15,0-3.06-0.14-3.59-0.14s-3.16,0.14-5.4,0.14c-0.62,0-0.91-0.1-0.91-0.38c0-0.19,0.24-0.29,0.67-0.29
					c0.33,0,0.76-0.05,1.15-0.09c2.2-0.29,3.16-2.11,4.02-4.5l10.86-29.7c0.57-1.58,0.76-1.87,1.05-1.87c0.29,0,0.48,0.24,1.05,1.72
					c0.72,1.82,8.23,21.57,11.14,28.84c1.72,4.26,3.11,5.02,4.11,5.31c0.72,0.24,1.48,0.29,1.87,0.29c0.29,0,0.53,0.05,0.53,0.29
					c0,0.29-0.43,0.38-0.96,0.38c-0.72,0-4.21,0-7.51-0.1c-0.91-0.05-1.43-0.05-1.43-0.33c0-0.19,0.14-0.29,0.33-0.33
					c0.29-0.1,0.57-0.53,0.29-1.29l-4.45-11.77c-0.1-0.19-0.19-0.29-0.43-0.29H47.64z M57.3,114.7c0.24,0,0.24-0.14,0.19-0.33
					l-4.54-12.91c-0.24-0.72-0.48-0.72-0.72,0l-4.21,12.91c-0.1,0.24,0,0.33,0.14,0.33H57.3z"/>
				<path class="st3" d="M77.44,129.92c-0.67-0.34-0.72-0.53-0.72-1.82c0-2.39,0.19-4.3,0.24-5.07c0.05-0.53,0.14-0.76,0.38-0.76
					c0.29,0,0.33,0.14,0.33,0.53c0,0.43,0,1.1,0.14,1.77c0.72,3.54,3.87,4.88,7.08,4.88c4.59,0,6.84-3.3,6.84-6.36
					c0-3.3-1.39-5.21-5.5-8.61l-2.15-1.77c-5.07-4.16-6.22-7.13-6.22-10.38c0-5.12,3.83-8.61,9.9-8.61c1.87,0,3.25,0.19,4.45,0.48
					c0.91,0.19,1.29,0.24,1.67,0.24c0.38,0,0.48,0.09,0.48,0.33s-0.19,1.82-0.19,5.07c0,0.77-0.09,1.1-0.33,1.1
					c-0.29,0-0.33-0.24-0.38-0.62c-0.05-0.57-0.33-1.87-0.62-2.39c-0.29-0.53-1.58-2.54-5.98-2.54c-3.3,0-5.88,2.06-5.88,5.55
					c0,2.73,1.24,4.45,5.84,8.04l1.34,1.05c5.64,4.45,6.98,7.41,6.98,11.24c0,1.96-0.76,5.6-4.07,7.94
					c-2.06,1.44-4.64,2.01-7.22,2.01C81.6,131.21,79.4,130.87,77.44,129.92z"/>
				<path class="st3" d="M111.44,116.43c-0.24,0-0.38,0.14-0.48,0.38l-2.87,8.47c-0.43,1.2-0.67,2.34-0.67,3.2
					c0,0.96,0.91,1.39,1.72,1.39c0.14,0,0.29,0,0.43,0c0.48,0,0.62,0.1,0.62,0.29c0,0.29-0.43,0.38-0.86,0.38
					c-1.15,0-3.06-0.14-3.59-0.14s-3.16,0.14-5.4,0.14c-0.62,0-0.91-0.1-0.91-0.38c0-0.19,0.24-0.29,0.67-0.29
					c0.33,0,0.76-0.05,1.15-0.09c2.2-0.29,3.16-2.11,4.02-4.5l10.86-29.7c0.57-1.58,0.76-1.87,1.05-1.87c0.29,0,0.48,0.24,1.05,1.72
					c0.72,1.82,8.23,21.57,11.14,28.84c1.72,4.26,3.11,5.02,4.11,5.31c0.72,0.24,1.48,0.29,1.87,0.29c0.29,0,0.53,0.05,0.53,0.29
					c0,0.29-0.43,0.38-0.96,0.38c-0.72,0-4.21,0-7.51-0.1c-0.91-0.05-1.43-0.05-1.43-0.33c0-0.19,0.14-0.29,0.33-0.33
					c0.29-0.1,0.57-0.53,0.29-1.29l-4.45-11.77c-0.1-0.19-0.19-0.29-0.43-0.29H111.44z M121.1,114.7c0.24,0,0.24-0.14,0.19-0.33
					l-4.54-12.91c-0.24-0.72-0.48-0.72-0.72,0l-4.21,12.91c-0.1,0.24,0,0.33,0.14,0.33H121.1z"/>
				<path class="st3" d="M159.23,108.25c0-7.46,0-8.8-0.1-10.33c-0.09-1.63-0.48-2.39-2.06-2.73c-0.38-0.1-1.2-0.14-1.39-0.14
					c-0.43,0-0.62-0.1-0.62-0.29c0-0.29,0.24-0.38,0.77-0.38c2.15,0,5.17,0.14,5.4,0.14c1.15,0,3.01-0.14,5.21-0.14
					c7.84,0,9.57,4.78,9.57,7.17c0,3.92-2.25,6.27-4.5,8.61c3.54,1.1,8.27,4.5,8.27,10.09c0,5.12-4.02,10.43-12.2,10.43
					c-0.53,0-2.06-0.1-3.44-0.14c-1.39-0.1-2.73-0.14-2.92-0.14c-1.53,0-3.01,0.14-4.69,0.14c-0.53,0-0.77-0.1-0.77-0.33
					c0-0.14,0.1-0.34,0.72-0.34c0.38,0,0.72-0.05,1.15-0.14c0.96-0.19,1.15-1.29,1.34-2.68c0.24-2.01,0.24-5.79,0.24-10.38V108.25z
					 M163.05,109.3c0,0.34,0.09,0.43,0.33,0.53c0.29,0.05,1.15,0.19,2.92,0.19c2.68,0,3.35-0.1,4.35-1.24
					c1.01-1.15,1.72-2.87,1.72-4.83c0-3.97-1.77-8.23-6.46-8.23c-0.53,0-1.53,0.05-2.3,0.24c-0.43,0.1-0.57,0.24-0.57,0.53V109.3z
					 M163.05,114.37c0,3.68,0,9.61,0.05,10.33c0.14,2.34,0.14,3.01,1.63,3.73c1.29,0.62,3.35,0.72,4.21,0.72
					c2.58,0,6.74-1.39,6.74-6.79c0-2.87-0.96-7.03-4.64-9.57c-1.63-1.1-2.82-1.24-3.97-1.39c-0.62-0.1-3.01-0.1-3.73-0.1
					c-0.19,0-0.29,0.1-0.29,0.33V114.37z"/>
				<path class="st3" d="M191.46,108.25c0-7.46,0-8.8-0.09-10.33c-0.1-1.63-0.48-2.39-2.06-2.73c-0.34-0.1-0.96-0.1-1.39-0.14
					c-0.34-0.05-0.62-0.1-0.62-0.29c0-0.29,0.24-0.38,0.77-0.38c1.1,0,2.39,0,5.4,0.14c0.33,0,9.85,0,10.95-0.05
					c1.05-0.05,1.91-0.14,2.2-0.29s0.38-0.19,0.53-0.19c0.14,0,0.19,0.19,0.19,0.43c0,0.33-0.29,0.91-0.38,2.25
					c-0.05,0.72-0.1,1.63-0.19,2.87c-0.05,0.48-0.19,0.81-0.38,0.81c-0.29,0-0.38-0.24-0.38-0.62c0-0.62-0.1-1.2-0.24-1.58
					c-0.33-1.1-1.34-1.58-3.44-1.77c-0.81-0.1-6.03-0.14-6.55-0.14c-0.19,0-0.29,0.14-0.29,0.48v13.2c0,0.33,0.05,0.48,0.29,0.48
					c0.62,0,6.51,0,7.61-0.09c1.29-0.1,1.91-0.24,2.39-0.81c0.24-0.29,0.38-0.48,0.57-0.48c0.14,0,0.24,0.1,0.24,0.38
					s-0.24,1.1-0.38,2.68c-0.14,1.48-0.14,2.58-0.19,3.25c-0.05,0.48-0.14,0.72-0.34,0.72c-0.29,0-0.33-0.38-0.33-0.77
					c0-0.43-0.05-0.91-0.19-1.34c-0.19-0.72-0.76-1.39-2.49-1.58c-1.29-0.14-6.03-0.24-6.84-0.24c-0.24,0-0.33,0.14-0.33,0.33v4.21
					c0,1.63-0.05,7.17,0,8.18c0.1,1.96,0.38,3.01,1.58,3.49c0.81,0.34,2.11,0.43,3.97,0.43c1.43,0,3.01-0.05,4.3-0.43
					c1.53-0.48,2.06-1.48,2.44-3.54c0.1-0.53,0.19-0.72,0.43-0.72c0.29,0,0.29,0.38,0.29,0.72c0,0.38-0.38,3.63-0.62,4.64
					c-0.33,1.24-0.72,1.24-2.58,1.24c-3.54,0-5.12-0.1-6.98-0.14c-1.91-0.05-4.11-0.14-5.98-0.14c-1.15,0-2.3,0.19-3.54,0.14
					c-0.53,0-0.77-0.1-0.77-0.38c0-0.14,0.24-0.24,0.53-0.29c0.48-0.05,0.77-0.05,1.1-0.14c1-0.24,1.63-0.91,1.72-4.5
					c0.05-1.87,0.09-4.3,0.09-8.56V108.25z"/>
				<path class="st3" d="M220.07,108.25c0-7.46,0-8.8-0.09-10.33c-0.1-1.63-0.48-2.39-2.06-2.73c-0.38-0.1-1.2-0.14-1.63-0.14
					c-0.19,0-0.38-0.1-0.38-0.29c0-0.29,0.24-0.38,0.77-0.38c2.15,0,5.17,0.14,5.4,0.14c0.53,0,4.16-0.14,5.64-0.14
					c3.01,0,6.22,0.29,8.75,2.1c1.2,0.86,3.3,3.2,3.3,6.5c0,3.54-1.48,7.08-5.79,11.05c3.92,5.02,7.17,9.28,9.95,12.24
					c2.58,2.73,4.64,3.25,5.84,3.44c0.91,0.14,1.58,0.14,1.86,0.14c0.24,0,0.43,0.14,0.43,0.29c0,0.29-0.29,0.38-1.15,0.38h-3.4
					c-2.68,0-3.87-0.24-5.12-0.91c-2.06-1.1-3.73-3.44-6.46-7.03c-2.01-2.63-4.26-5.84-5.21-7.08c-0.19-0.19-0.34-0.29-0.62-0.29
					l-5.88-0.1c-0.24,0-0.33,0.14-0.33,0.38v1.15c0,4.59,0,8.37,0.24,10.38c0.14,1.39,0.43,2.44,1.87,2.63
					c0.67,0.1,1.72,0.19,2.15,0.19c0.29,0,0.38,0.14,0.38,0.29c0,0.24-0.24,0.38-0.76,0.38c-2.63,0-5.64-0.14-5.88-0.14
					c-0.05,0-3.06,0.14-4.5,0.14c-0.53,0-0.77-0.1-0.77-0.38c0-0.14,0.1-0.29,0.38-0.29c0.43,0,1-0.09,1.43-0.19
					c0.96-0.19,1.2-1.24,1.39-2.63c0.24-2.01,0.24-5.79,0.24-10.38V108.25z M223.89,112.41c0,0.24,0.09,0.43,0.33,0.57
					c0.72,0.43,2.92,0.76,5.02,0.76c1.15,0,2.49-0.14,3.59-0.91c1.67-1.15,2.92-3.73,2.92-7.37c0-5.98-3.16-9.57-8.27-9.57
					c-1.43,0-2.73,0.14-3.2,0.29c-0.24,0.1-0.38,0.29-0.38,0.57V112.41z"/>
				<path class="st3" d="M255.03,116.43c0-17.27,0.1-11.05,0.05-20.33c0-1.87,0.14-2.39,0.53-2.39s1.2,1.05,1.67,1.53
					c0.72,0.81,7.84,8.51,15.21,16.41c4.74,5.07,9.95,10.91,11.48,12.48l-0.53-24.3c-0.05-3.11-0.38-4.16-1.86-4.54
					c-0.86-0.19-1.63-0.24-2.06-0.24c-0.53,0-0.67-0.14-0.67-0.33c0-0.29,0.38-0.34,0.96-0.34c2.15,0,4.45,0.14,4.97,0.14
					c0.53,0,2.1-0.14,4.07-0.14c0.53,0,0.86,0.05,0.86,0.34c0,0.19-0.19,0.29-0.53,0.33c-0.38,0.05-0.67,0.1-1.24,0.19
					c-1.34,0.29-1.67,1.01-1.67,4.3l-0.09,27.93c0,3.16-0.1,3.4-0.43,3.4c-0.38,0-0.96-0.53-3.49-3.06
					c-0.53-0.48-7.41-7.51-12.48-12.96c-5.55-5.98-10.95-12-12.48-13.73l0.62,22.91c0.1,3.92,0.57,5.17,1.87,5.55
					c0.91,0.24,1.96,0.29,2.39,0.29c0.24,0,0.38,0.1,0.38,0.29c0,0.29-0.29,0.38-0.86,0.38c-2.73,0-4.64-0.14-5.07-0.14
					c-0.43,0-2.44,0.14-4.59,0.14c-0.48,0-0.76-0.05-0.76-0.38c0-0.19,0.14-0.29,0.38-0.29c0.38,0,1.24-0.05,1.96-0.29
					c1.2-0.33,1.43-1.72,1.43-6.07V116.43z"/>
				<path class="st3" d="M304.58,116.43c-0.24,0-0.38,0.14-0.48,0.38l-2.87,8.47c-0.43,1.2-0.67,2.34-0.67,3.2
					c0,0.96,0.91,1.39,1.72,1.39c0.14,0,0.29,0,0.43,0c0.48,0,0.62,0.1,0.62,0.29c0,0.29-0.43,0.38-0.86,0.38
					c-1.15,0-3.06-0.14-3.59-0.14s-3.16,0.14-5.4,0.14c-0.62,0-0.91-0.1-0.91-0.38c0-0.19,0.24-0.29,0.67-0.29
					c0.33,0,0.76-0.05,1.15-0.09c2.2-0.29,3.16-2.11,4.02-4.5l10.86-29.7c0.57-1.58,0.76-1.87,1.05-1.87c0.29,0,0.48,0.24,1.05,1.72
					c0.72,1.82,8.23,21.57,11.14,28.84c1.72,4.26,3.11,5.02,4.11,5.31c0.72,0.24,1.48,0.29,1.87,0.29c0.29,0,0.53,0.05,0.53,0.29
					c0,0.29-0.43,0.38-0.96,0.38c-0.72,0-4.21,0-7.51-0.1c-0.91-0.05-1.43-0.05-1.43-0.33c0-0.19,0.14-0.29,0.33-0.33
					c0.29-0.1,0.57-0.53,0.29-1.29l-4.45-11.77c-0.1-0.19-0.19-0.29-0.43-0.29H304.58z M314.24,114.7c0.24,0,0.24-0.14,0.19-0.33
					l-4.54-12.91c-0.24-0.72-0.48-0.72-0.72,0l-4.21,12.91c-0.1,0.24,0,0.33,0.14,0.33H314.24z"/>
				<path class="st3" d="M343.18,116.67c0,4.59,0,8.37,0.24,10.38c0.14,1.39,0.43,2.44,1.87,2.63c0.67,0.1,1.72,0.19,2.15,0.19
					c0.29,0,0.38,0.14,0.38,0.29c0,0.24-0.24,0.38-0.77,0.38c-2.63,0-5.64-0.14-5.88-0.14c-0.24,0-3.25,0.14-4.69,0.14
					c-0.53,0-0.76-0.1-0.76-0.38c0-0.14,0.09-0.29,0.38-0.29c0.43,0,1-0.09,1.43-0.19c0.96-0.19,1.2-1.24,1.39-2.63
					c0.24-2.01,0.24-5.79,0.24-10.38V96.43c-2.34,0.05-4.74,0.05-7.08,0.1c-2.97,0.05-4.11,0.38-4.88,1.53
					c-0.53,0.81-0.67,1.15-0.81,1.48c-0.14,0.38-0.29,0.48-0.48,0.48c-0.14,0-0.24-0.14-0.24-0.43c0-0.48,0.96-4.59,1.05-4.97
					c0.1-0.29,0.29-0.91,0.48-0.91c0.33,0,0.81,0.48,2.1,0.57c1.39,0.14,3.2,0.24,3.78,0.24h17.94c1.53,0,2.63-0.09,3.4-0.24
					c0.72-0.09,1.15-0.24,1.34-0.24c0.24,0,0.24,0.29,0.24,0.57c0,1.43-0.14,4.74-0.14,5.26c0,0.43-0.14,0.62-0.34,0.62
					c-0.24,0-0.33-0.14-0.38-0.81c0-0.19-0.05-0.33-0.05-0.53c-0.14-1.44-1.29-2.54-5.88-2.63c-2.01-0.05-4.02-0.05-6.03-0.1V116.67
					z"/>
			</g>
			<g>
				<g>
					<path class="st3" d="M158.75,157.11c0-3.81,0-4.5-0.05-5.28c-0.05-0.83-0.29-1.25-0.83-1.37c-0.27-0.07-0.59-0.1-0.76-0.1
						c-0.1,0-0.2-0.05-0.2-0.15c0-0.15,0.12-0.2,0.39-0.2c0.81,0,2.35,0.07,2.47,0.07c0.12,0,1.66-0.07,2.4-0.07
						c0.27,0,0.39,0.05,0.39,0.2c0,0.1-0.1,0.15-0.2,0.15c-0.17,0-0.32,0.02-0.61,0.07c-0.66,0.12-0.86,0.54-0.91,1.39
						c-0.05,0.78-0.05,1.47-0.05,5.28v4.3c0,2.35,0,4.28,0.12,5.3c0.07,0.71,0.22,1.25,0.95,1.34c0.34,0.05,0.86,0.1,1,0.1
						c0.22,0,0.29,0.07,0.29,0.15c0,0.12-0.1,0.2-0.37,0.2c-1.34,0-2.91-0.07-3.03-0.07c-0.12,0-1.66,0.07-2.4,0.07
						c-0.27,0-0.39-0.05-0.39-0.2c0-0.07,0.05-0.15,0.27-0.15c0.15,0,0.42-0.02,0.64-0.07c0.49-0.1,0.64-0.66,0.73-1.37
						c0.12-1.03,0.12-2.96,0.12-5.3V157.11z"/>
					<path class="st3" d="M167.7,168.18c-0.34-0.17-0.37-0.27-0.37-0.93c0-1.22,0.1-2.2,0.12-2.59c0.02-0.27,0.07-0.39,0.2-0.39
						c0.15,0,0.17,0.07,0.17,0.27c0,0.22,0,0.56,0.07,0.9c0.37,1.81,1.98,2.49,3.62,2.49c2.35,0,3.5-1.69,3.5-3.25
						c0-1.69-0.71-2.66-2.81-4.4l-1.1-0.9c-2.59-2.13-3.18-3.64-3.18-5.31c0-2.62,1.96-4.4,5.06-4.4c0.95,0,1.66,0.1,2.27,0.24
						c0.46,0.1,0.66,0.12,0.86,0.12c0.2,0,0.24,0.05,0.24,0.17c0,0.12-0.1,0.93-0.1,2.59c0,0.39-0.05,0.56-0.17,0.56
						c-0.15,0-0.17-0.12-0.2-0.32c-0.02-0.29-0.17-0.95-0.32-1.22c-0.15-0.27-0.81-1.3-3.06-1.3c-1.69,0-3.01,1.05-3.01,2.84
						c0,1.39,0.64,2.27,2.98,4.11l0.68,0.54c2.89,2.27,3.57,3.79,3.57,5.75c0,1-0.39,2.86-2.08,4.06c-1.05,0.73-2.37,1.03-3.69,1.03
						C169.82,168.84,168.7,168.67,167.7,168.18z"/>
					<path class="st3" d="M182.53,157.11c0-3.81,0-4.5-0.05-5.28c-0.05-0.83-0.29-1.25-0.83-1.37c-0.27-0.07-0.59-0.1-0.76-0.1
						c-0.1,0-0.2-0.05-0.2-0.15c0-0.15,0.12-0.2,0.39-0.2c0.81,0,2.35,0.07,2.47,0.07c0.12,0,1.66-0.07,2.4-0.07
						c0.27,0,0.39,0.05,0.39,0.2c0,0.1-0.1,0.15-0.2,0.15c-0.17,0-0.32,0.02-0.61,0.07c-0.66,0.12-0.86,0.54-0.9,1.39
						c-0.05,0.78-0.05,1.47-0.05,5.28v4.3c0,2.35,0,4.28,0.12,5.3c0.07,0.71,0.22,1.25,0.95,1.34c0.34,0.05,0.86,0.1,1,0.1
						c0.22,0,0.29,0.07,0.29,0.15c0,0.12-0.1,0.2-0.37,0.2c-1.34,0-2.91-0.07-3.03-0.07c-0.12,0-1.66,0.07-2.4,0.07
						c-0.27,0-0.39-0.05-0.39-0.2c0-0.07,0.05-0.15,0.27-0.15c0.15,0,0.42-0.02,0.64-0.07c0.49-0.1,0.64-0.66,0.73-1.37
						c0.12-1.03,0.12-2.96,0.12-5.3V157.11z"/>
					<path class="st3" d="M195.1,161.46c0,3.59,0.1,5.16,0.54,5.6c0.39,0.39,1.03,0.56,2.93,0.56c1.3,0,2.37-0.02,2.96-0.73
						c0.32-0.39,0.56-1,0.64-1.47c0.02-0.2,0.07-0.32,0.22-0.32c0.12,0,0.15,0.1,0.15,0.37c0,0.27-0.17,1.74-0.37,2.44
						c-0.17,0.56-0.24,0.66-1.54,0.66c-2.1,0-4.18-0.15-6.55-0.15c-0.76,0-1.49,0.07-2.4,0.07c-0.27,0-0.39-0.05-0.39-0.2
						c0-0.07,0.05-0.15,0.2-0.15c0.22,0,0.51-0.05,0.73-0.1c0.49-0.1,0.61-0.64,0.71-1.34c0.12-1.03,0.12-2.96,0.12-5.3v-4.3
						c0-3.81,0-4.5-0.05-5.28c-0.05-0.83-0.24-1.22-1.05-1.39c-0.2-0.05-0.61-0.07-0.83-0.07c-0.1,0-0.2-0.05-0.2-0.15
						c0-0.15,0.12-0.2,0.39-0.2c1.1,0,2.64,0.07,2.76,0.07c0.12,0,1.91-0.07,2.64-0.07c0.27,0,0.39,0.05,0.39,0.2
						c0,0.1-0.1,0.15-0.2,0.15c-0.17,0-0.51,0.02-0.81,0.07c-0.71,0.12-0.9,0.54-0.95,1.39c-0.05,0.78-0.05,1.47-0.05,5.28V161.46z"
						/>
				</g>
			</g>
		</g>
	</g>
</g>
</svg>
